<?xml version="1.0" standalone="no"?>
<!DOCTYPE svg PUBLIC "-//W3C//DTD SVG 20010904//EN"
 "http://www.w3.org/TR/2001/REC-SVG-20010904/DTD/svg10.dtd">
<svg version="1.0" xmlns="http://www.w3.org/2000/svg"
 width="1696.000000pt" height="1696.000000pt" viewBox="0 0 1696.000000 1696.000000"
 preserveAspectRatio="xMidYMid meet">
<metadata>
Created by potrace 1.11, written by Peter Selinger 2001-2013
</metadata>
<g transform="translate(0.000000,1696.000000) scale(0.100000,-0.100000)"
fill="#000000" stroke="none">
<path d="M2989 11676 c-2 -2 -40 -7 -84 -11 -44 -3 -93 -8 -110 -11 -16 -2
-48 -6 -70 -9 -63 -8 -70 -9 -265 -50 -14 -3 -32 -8 -40 -11 -8 -3 -26 -8 -40
-10 -50 -10 -227 -68 -332 -109 -59 -24 -110 -40 -113 -37 -3 3 -5 0 -5 -6 0
-7 -5 -12 -11 -12 -14 0 -150 -65 -211 -102 -27 -15 -48 -26 -48 -23 0 14
-381 -238 -388 -257 -2 -4 -8 -8 -13 -8 -8 0 -17 -7 -72 -53 -12 -10 -44 -37
-71 -60 -27 -23 -71 -63 -98 -89 -26 -25 -48 -45 -48 -43 0 2 -21 -19 -48 -47
-26 -28 -58 -63 -72 -78 -36 -37 -126 -142 -152 -176 -13 -16 -26 -30 -30 -32
-5 -2 -8 -10 -8 -17 0 -7 -4 -15 -8 -17 -17 -6 -166 -227 -235 -347 -28 -49
-129 -251 -144 -287 -7 -16 -26 -63 -44 -104 -39 -95 -110 -312 -124 -380 -2
-8 -4 -15 -5 -15 -2 0 -4 -10 -29 -127 -12 -53 -22 -109 -23 -123 -1 -14 -5
-25 -8 -25 -3 0 -5 -15 -6 -33 -1 -17 -4 -52 -7 -77 -17 -119 -22 -203 -22
-415 1 -126 4 -261 9 -300 5 -38 10 -83 11 -100 4 -46 17 -126 35 -210 6 -27
12 -59 14 -70 20 -112 100 -371 158 -510 16 -38 30 -76 32 -83 1 -7 8 -18 14
-24 7 -7 12 -16 12 -21 0 -22 157 -319 172 -325 4 -2 8 -8 8 -14 0 -9 157
-247 170 -258 3 -3 19 -23 36 -45 16 -21 36 -47 44 -56 8 -9 35 -40 60 -70 82
-98 312 -322 401 -389 18 -14 37 -29 43 -35 27 -24 128 -97 211 -151 50 -33
91 -62 93 -66 2 -5 9 -8 16 -8 6 0 34 -15 61 -32 81 -53 308 -162 445 -214
119 -46 318 -108 380 -120 14 -3 50 -11 80 -19 73 -18 239 -45 380 -61 135
-16 599 -9 710 11 14 2 43 6 65 9 22 3 50 7 62 10 11 2 43 8 70 12 53 9 62 11
66 14 2 2 18 5 67 15 62 12 115 27 240 67 52 16 100 31 105 32 15 4 67 26 99
42 16 8 33 14 38 14 25 0 385 178 426 211 9 8 27 20 40 27 12 6 32 18 45 25
12 6 26 18 30 25 4 6 12 12 18 12 10 0 148 97 198 140 9 8 37 31 62 49 24 19
55 44 68 55 42 38 275 270 301 301 14 17 47 57 75 90 66 78 185 242 185 254 0
5 4 11 8 13 11 4 92 135 92 148 0 5 3 10 8 10 4 0 12 9 17 19 144 284 225 469
260 601 1 3 4 12 8 20 13 32 71 250 82 309 18 94 43 265 50 337 4 40 16 273
16 309 0 88 -16 345 -26 405 -4 25 -9 61 -11 80 -1 19 -6 49 -9 65 -3 17 -13
64 -21 105 -35 168 -94 364 -162 537 -41 103 -146 320 -188 388 -13 22 -27 47
-31 55 -4 8 -24 41 -45 72 -21 31 -38 61 -38 67 0 5 -4 11 -8 13 -5 2 -23 26
-42 53 -18 28 -36 52 -40 55 -3 3 -17 21 -30 40 -13 19 -29 40 -35 47 -5 7
-21 26 -35 43 -67 83 -115 135 -225 245 -66 66 -142 138 -169 160 -27 22 -56
47 -65 55 -9 8 -32 26 -51 40 -19 13 -37 27 -40 30 -23 25 -173 126 -295 199
-39 23 -77 46 -85 51 -63 38 -370 182 -370 173 0 -3 -6 -1 -12 4 -7 6 -67 29
-133 51 -102 35 -145 48 -255 77 -24 6 -201 43 -240 50 -38 7 -68 11 -145 21
-27 3 -61 8 -75 10 -31 6 -526 15 -531 10z m411 -381 c133 -10 220 -20 270
-30 46 -10 75 -15 105 -21 17 -3 57 -12 90 -21 33 -8 65 -16 70 -17 167 -38
558 -200 666 -277 15 -10 30 -19 34 -19 3 0 26 -13 50 -30 24 -16 48 -30 54
-30 6 0 11 -4 11 -10 0 -5 5 -10 10 -10 6 0 16 -5 23 -10 7 -6 55 -42 107 -81
175 -131 337 -284 470 -445 41 -49 78 -90 83 -92 4 -2 7 -9 7 -15 0 -7 10 -23
23 -37 24 -27 136 -196 180 -271 48 -84 133 -263 166 -349 18 -47 37 -94 42
-105 11 -27 48 -145 54 -173 2 -12 6 -26 9 -30 3 -5 7 -19 10 -33 3 -13 10
-44 16 -69 16 -72 40 -202 46 -245 2 -22 6 -53 9 -70 7 -56 18 -238 18 -324 0
-99 -16 -346 -23 -346 0 0 -2 -20 -4 -45 -2 -25 -6 -54 -9 -65 -4 -11 -9 -40
-12 -64 -3 -23 -7 -46 -10 -50 -2 -4 -7 -23 -10 -42 -11 -64 -53 -219 -72
-269 -4 -8 -7 -17 -8 -20 -5 -21 -30 -90 -40 -115 -8 -16 -28 -64 -45 -105
-33 -80 -167 -342 -179 -350 -4 -3 -18 -24 -31 -47 -13 -24 -27 -43 -32 -43
-4 0 -8 -5 -8 -11 0 -14 -99 -147 -189 -254 -212 -250 -462 -457 -769 -636
-119 -69 -411 -199 -482 -214 -8 -2 -49 -15 -90 -30 -41 -14 -76 -25 -78 -24
-2 0 -32 -5 -82 -17 -59 -14 -157 -34 -185 -38 -139 -21 -143 -22 -256 -30
-155 -13 -396 -8 -533 9 -87 11 -113 15 -136 20 -14 3 -45 8 -69 11 -24 2 -49
8 -55 11 -6 4 -20 8 -31 9 -36 3 -277 71 -330 94 -11 4 -47 18 -80 31 -33 12
-89 36 -125 53 -36 16 -67 30 -70 31 -7 1 -100 50 -147 76 -72 40 -158 93
-204 126 -26 18 -49 33 -53 33 -4 0 -17 9 -29 20 -12 11 -60 50 -107 87 -136
108 -272 237 -360 341 -25 30 -54 64 -65 76 -40 46 -65 76 -65 81 0 2 -23 34
-50 71 -28 37 -50 70 -50 75 0 4 -6 14 -13 21 -37 37 -195 334 -257 483 -33
81 -89 253 -114 350 -60 239 -89 473 -88 708 1 215 30 475 72 642 6 22 13 48
15 59 50 214 211 589 341 791 199 311 417 547 704 764 111 84 327 221 348 221
6 0 12 4 14 8 3 7 192 102 204 102 2 0 23 9 47 19 44 20 148 58 232 86 47 16
277 73 320 80 176 29 207 33 350 41 66 3 121 7 122 8 4 3 175 -3 253 -9z"/>
<path d="M1665 9230 c-37 -6 -96 -37 -112 -59 -62 -81 -60 -186 5 -255 40 -42
83 -56 185 -62 91 -4 158 -11 187 -19 8 -2 30 -7 47 -10 47 -8 196 -55 211
-67 6 -6 12 -8 12 -5 0 9 171 -83 234 -126 126 -85 260 -218 340 -338 20 -30
39 -58 44 -64 40 -51 137 -285 156 -375 22 -100 26 -126 22 -137 -3 -7 -1 -15
3 -17 5 -3 9 -47 10 -97 3 -130 31 -188 111 -229 96 -48 211 -1 255 104 20 47
16 184 -10 351 -38 242 -175 557 -319 736 -12 14 -32 40 -45 57 -49 64 -188
199 -271 262 -18 14 -39 31 -46 38 -7 6 -16 12 -19 12 -4 0 -21 10 -38 23 -67
48 -287 157 -367 182 -30 10 -64 21 -75 26 -20 8 -68 21 -95 25 -8 2 -22 5
-30 7 -17 4 -71 15 -115 22 -27 5 -146 15 -220 19 -16 1 -43 -1 -60 -4z"/>
<path d="M4697 9234 c-1 -1 -37 -4 -79 -5 -126 -3 -312 -36 -415 -73 -22 -8
-44 -12 -47 -9 -3 4 -6 2 -6 -4 0 -6 -14 -13 -32 -17 -17 -3 -70 -25 -117 -48
-47 -23 -89 -41 -93 -40 -5 1 -8 -2 -8 -8 0 -5 -5 -10 -11 -10 -11 0 -180
-106 -189 -119 -3 -4 -14 -14 -26 -22 -64 -44 -207 -180 -227 -215 -5 -9 0
-28 15 -52 49 -79 78 -136 137 -264 12 -27 25 -48 30 -48 5 0 21 19 36 43 24
35 179 195 227 233 40 32 141 96 201 128 60 33 208 93 247 101 8 2 33 8 55 13
80 22 173 35 260 37 39 1 84 5 100 10 56 14 121 76 130 122 2 10 4 20 5 23 7
20 -1 83 -16 117 -20 46 -89 97 -142 105 -17 2 -33 3 -35 2z"/>
<path d="M8508 9539 c-62 -10 -119 -76 -108 -124 1 -5 3 -18 5 -28 7 -34 45
-76 78 -83 17 -4 169 -8 337 -8 l305 -1 0 -855 c1 -937 -2 -895 60 -931 58
-34 135 -15 169 42 17 29 18 78 18 885 0 470 3 855 7 855 3 1 143 2 311 3 168
1 316 6 330 10 45 16 85 84 75 131 -2 11 -4 23 -4 28 -2 18 -61 67 -87 73 -38
7 -1451 11 -1496 3z"/>
<path d="M14623 9536 c-25 -14 -48 -37 -61 -62 -8 -14 -11 -307 -11 -964 l0
-942 22 -34 c29 -45 96 -68 144 -49 46 19 73 51 79 93 5 33 8 1423 3 1447 -1
6 0 15 1 20 1 6 2 97 2 204 0 217 -10 259 -65 282 -37 16 -91 18 -114 5z"/>
<path d="M10840 9525 c-115 -25 -213 -59 -293 -102 -15 -8 -40 -21 -54 -28
-14 -8 -29 -17 -32 -22 -3 -4 -28 -23 -56 -42 -96 -66 -265 -261 -292 -339 -3
-9 -13 -25 -21 -34 -8 -10 -12 -18 -9 -18 3 0 -5 -24 -18 -54 -25 -57 -49
-140 -61 -216 -15 -93 -9 -299 12 -390 9 -41 9 -43 29 -100 11 -30 20 -57 20
-60 3 -17 69 -138 103 -187 105 -154 232 -265 396 -346 117 -58 199 -84 331
-104 109 -17 303 -2 420 31 6 2 23 6 39 11 74 20 260 124 328 182 155 135 266
296 328 477 18 53 47 201 49 251 4 88 -4 230 -15 267 -3 9 -7 27 -9 39 -16 82
-113 309 -136 317 -5 2 -9 8 -9 14 0 14 -90 125 -142 174 -24 23 -68 60 -98
83 -30 23 -60 45 -65 49 -9 8 -167 85 -210 103 -11 5 -47 16 -80 24 -33 9 -69
19 -80 22 -41 11 -321 10 -375 -2z m320 -241 c8 -3 28 -8 45 -11 73 -12 212
-77 286 -133 42 -31 149 -139 169 -170 8 -12 21 -29 28 -36 7 -8 10 -14 5 -14
-4 0 -3 -4 3 -8 13 -9 69 -126 80 -167 4 -16 8 -32 9 -35 34 -126 35 -246 0
-405 -17 -82 -89 -220 -151 -291 l-31 -37 -48 59 c-26 33 -51 61 -56 62 -5 2
-9 10 -9 17 0 7 -3 15 -8 17 -4 2 -46 50 -92 107 -47 56 -132 160 -190 230
-58 70 -120 146 -138 169 -19 22 -42 51 -53 64 -10 13 -22 28 -26 33 -5 6 -24
29 -43 51 -19 22 -51 60 -70 84 -19 24 -70 87 -113 139 -43 53 -85 105 -94
116 -9 11 -23 28 -32 38 -14 17 -14 20 4 30 11 6 22 12 25 13 3 0 25 10 50 21
69 31 115 44 198 57 76 12 222 12 252 0z m-699 -305 c13 -18 32 -41 42 -53 39
-45 53 -63 92 -111 22 -27 45 -55 50 -61 6 -6 24 -28 40 -49 17 -21 35 -43 40
-49 6 -6 49 -58 95 -116 47 -58 90 -109 96 -115 6 -5 28 -32 50 -60 21 -27 44
-55 49 -61 19 -21 198 -241 227 -279 5 -5 24 -28 43 -50 20 -22 56 -66 81 -97
l45 -57 -55 -25 c-116 -53 -193 -70 -321 -70 -66 0 -133 3 -150 7 -70 14 -81
17 -100 26 -11 5 -43 18 -72 29 -66 26 -175 98 -234 155 -129 124 -220 313
-235 485 -3 42 -6 82 -6 87 7 130 29 221 77 324 35 74 100 171 114 171 5 0 19
-14 32 -31z"/>
<path d="M12401 9528 c-69 -37 -85 -123 -34 -188 27 -35 154 -196 161 -205 4
-5 44 -57 87 -115 44 -58 86 -109 92 -113 7 -4 13 -12 13 -18 0 -5 10 -20 23
-32 13 -12 27 -29 30 -37 4 -8 59 -80 122 -160 63 -80 115 -150 115 -156 0 -5
-8 -19 -17 -30 -10 -11 -34 -40 -53 -64 -19 -25 -38 -49 -42 -55 -13 -16 -278
-357 -302 -388 -11 -15 -28 -36 -36 -47 -8 -10 -24 -31 -35 -46 -11 -15 -25
-32 -30 -38 -6 -6 -24 -29 -40 -51 -17 -22 -32 -42 -35 -45 -32 -29 -70 -99
-70 -127 0 -71 52 -123 122 -123 44 1 70 17 108 65 49 63 73 94 143 185 36 47
82 105 102 130 19 25 65 83 101 130 36 47 80 103 97 124 18 21 37 46 42 55 27
44 109 140 116 136 4 -3 32 -38 62 -78 30 -39 99 -129 153 -198 55 -69 110
-141 124 -159 14 -18 31 -39 38 -46 6 -7 12 -15 12 -18 0 -3 9 -16 19 -28 10
-13 55 -69 100 -125 111 -141 178 -185 278 -185 145 0 157 210 13 237 -27 5
-41 19 -120 120 -30 39 -60 76 -67 83 -7 7 -13 17 -13 20 0 4 -10 18 -23 32
-12 14 -38 45 -57 70 -19 25 -39 50 -45 56 -5 6 -17 22 -25 34 -8 12 -20 28
-25 34 -17 18 -251 320 -259 334 -6 10 88 141 236 325 24 31 14 17 219 282
217 280 226 297 185 358 -27 41 -81 67 -124 60 -43 -7 -70 -36 -268 -293 -174
-224 -206 -265 -227 -290 -7 -8 -33 -42 -57 -75 -60 -79 -72 -95 -92 -116 -9
-10 -22 -27 -28 -39 l-12 -22 -16 24 c-9 12 -21 28 -27 34 -5 6 -53 66 -105
134 -136 175 -296 379 -333 424 -18 21 -34 43 -36 49 -2 5 -11 17 -20 26 -9
10 -29 35 -46 56 -64 83 -78 95 -125 100 -28 4 -54 1 -69 -7z"/>
<path d="M15349 9525 c-14 -8 -34 -27 -44 -42 -18 -27 -19 -73 -19 -964 0
-998 -1 -980 48 -1013 54 -35 121 -26 166 22 l25 27 2 740 c1 407 2 747 2 755
1 9 7 6 18 -10 10 -14 21 -29 25 -35 15 -18 133 -173 151 -198 10 -14 53 -70
95 -125 87 -113 77 -99 252 -330 72 -96 136 -179 141 -185 6 -7 51 -66 100
-132 49 -66 95 -127 102 -135 7 -8 62 -80 122 -160 60 -80 115 -151 122 -158
7 -7 20 -26 29 -42 23 -38 55 -54 110 -54 37 0 50 6 77 32 l32 32 3 946 c2
832 0 949 -13 978 -34 70 -125 87 -187 33 l-33 -29 -3 -760 -2 -760 -30 38
c-42 55 -41 53 -89 119 -25 33 -47 62 -51 65 -3 3 -17 21 -30 40 -14 19 -30
42 -37 50 -7 8 -32 42 -57 75 -25 33 -49 65 -53 70 -5 6 -35 46 -69 90 -142
189 -387 511 -417 550 -13 17 -92 120 -175 230 -83 110 -160 210 -171 223 -25
29 -103 38 -142 17z"/>
</g>
</svg>
