<svg xmlns="http://www.w3.org/2000/svg" width="34" height="43" fill="none"><path fill="url(#a)" d="M16.44 36.97c2.68 0 4.93-.9 6.75-2.72 1.86-1.88 2.8-4.16 2.8-6.84 0-2.74-.38-5.43-1.13-8.06-1.93 2.57-5.03 4.3-9.28 5.16-3.76.8-5.63 2.88-5.63 6.2 0 1.74.62 3.24 1.87 4.5 1.25 1.17 2.8 1.77 4.6 1.77zM20 .3c4 3.26 7.16 7.23 9.47 11.92 2.37 4.62 3.56 9.56 3.56 14.8 0 4.4-1.56 8.14-4.7 11.26-3.1 3.13-6.9 4.7-11.33 4.7-4.44 0-8.22-1.57-11.34-4.7C2.53 35.16.96 31.4.96 27.03c0-6.75 2.17-12.7 6.48-17.8v.74c0 2.06.68 3.8 2.06 5.25 1.38 1.44 3.1 2.15 5.16 2.15 2 0 3.62-.68 4.87-2.06 1.3-1.43 1.97-3.2 1.97-5.33 0-1.25-.13-2.7-.38-4.3-.25-1.64-.5-2.92-.75-3.86L20 .3z"/><defs><linearGradient id="a" x1="17" x2="17" y1="-1" y2="47" gradientUnits="userSpaceOnUse"><stop stop-color="#BC9CFF"/><stop offset="1" stop-color="#8BA4F9"/></linearGradient></defs></svg>