<svg xmlns="http://www.w3.org/2000/svg" width="22" height="22" fill="none"><path fill="url(#a)" d="M21.5 2.75v16.5c0 .63-.22 1.16-.66 1.6-.43.43-.96.65-1.6.65h-3.97v-8.3h2.8l.43-3.18h-3.23V8c0-.34.03-.6.1-.8.05-.22.2-.4.46-.5.25-.17.58-.25.98-.25h1.7v-2.8c-.66-.1-1.47-.15-2.44-.15-1.25 0-2.25.38-3 1.13-.72.7-1.08 1.73-1.08 3.04v2.35H9.12v3.18h2.86v8.3H2.75c-.63 0-1.16-.22-1.6-.66-.43-.43-.65-.96-.65-1.6V2.75c0-.62.22-1.15.66-1.58C1.6.72 2.13.5 2.76.5h16.5c.6 0 1.15.22 1.58.66.44.43.66.97.66 1.6z"/><defs><linearGradient id="a" x1="11" x2="11" y1="1" y2="25" gradientUnits="userSpaceOnUse"><stop stop-color="#BC9CFF"/><stop offset="1" stop-color="#8BA4F9"/></linearGradient></defs></svg>