<svg xmlns="http://www.w3.org/2000/svg" width="24" height="20" fill="none"><path fill="url(#a)" d="M21.52 5.13c.03.12.04.32.04.6 0 2.25-.54 4.43-1.64 6.52-1.12 2.22-2.7 3.98-4.73 5.3-2.23 1.47-4.78 2.2-7.65 2.2-2.75 0-5.27-.73-7.55-2.2.34.03.73.04 1.17.04 2.28 0 4.33-.7 6.14-2.12-1.08 0-2.05-.3-2.9-.93-.8-.66-1.37-1.47-1.68-2.44.3.04.6.06.9.06.43 0 .86-.05 1.3-.14-1.12-.25-2.06-.83-2.8-1.74-.76-.9-1.14-1.94-1.14-3.1v-.1c.7.42 1.43.64 2.2.67C2.54 7.28 2 6.7 1.6 5.97c-.4-.72-.6-1.5-.6-2.34 0-.88.24-1.7.7-2.5C2.92 2.68 4.4 3.9 6.15 4.8c1.78.9 3.67 1.4 5.67 1.5-.05-.38-.08-.75-.08-1.13 0-.87.22-1.7.65-2.44.44-.78 1.04-1.4 1.8-1.82.74-.43 1.55-.65 2.42-.65.7 0 1.37.14 1.96.42.63.28 1.17.66 1.64 1.13 1.13-.22 2.18-.6 3.14-1.18-.37 1.16-1.1 2.07-2.15 2.72.93-.12 1.86-.4 2.8-.8-.7 1-1.52 1.87-2.48 2.58z"/><defs><linearGradient id="a" x1="12" x2="12" y1="-2" y2="22" gradientUnits="userSpaceOnUse"><stop stop-color="#BC9CFF"/><stop offset="1" stop-color="#8BA4F9"/></linearGradient></defs></svg>