<svg xmlns="http://www.w3.org/2000/svg" width="40" height="40" fill="none"><path fill="url(#a)" d="M26.2 29.1c-1.82 1.24-3.9 1.87-6.2 1.87-2.3 0-4.4-.63-6.28-1.88-1.8-1.32-3.13-3-3.94-5.07h20.44c-.8 2.06-2.16 3.75-4.03 5.06zM15.02 17.2c-.56.55-1.25.83-2.06.83-.8 0-1.53-.28-2.16-.84-.55-.64-.83-1.36-.83-2.17 0-.8.28-1.5.84-2.06.64-.63 1.36-.94 2.17-.94.8 0 1.5.3 2.06.94.63.56.94 1.25.94 2.06 0 .8-.3 1.53-.94 2.16zm14.06 0c-.57.55-1.26.83-2.07.83-.8 0-1.53-.28-2.16-.84-.56-.64-.84-1.36-.84-2.17 0-.8.28-1.5.84-2.06.63-.63 1.35-.94 2.16-.94.8 0 1.5.3 2.06.94.62.56.93 1.25.93 2.06 0 .8-.3 1.53-.94 2.16zM8.65 31.33c3.18 3.13 6.96 4.7 11.34 4.7s8.13-1.57 11.25-4.7c3.2-3.18 4.78-6.96 4.78-11.34s-1.6-8.13-4.78-11.25C28.12 5.55 24.37 3.97 20 3.97c-4.38 0-8.16 1.6-11.34 4.78-3.13 3.13-4.7 6.88-4.7 11.25 0 4.38 1.57 8.16 4.7 11.34zM5.84 5.94C9.78 2 14.5.04 20 .04S30.2 2 34.06 5.93C38 9.8 39.96 14.5 39.96 20S38 30.22 34.07 34.16c-3.87 3.87-8.56 5.8-14.06 5.8s-10.22-1.93-14.16-5.8C1.97 30.22.04 25.5.04 20S1.96 9.8 5.83 5.94z"/><defs><linearGradient id="a" x1="20" x2="20" y1="-4" y2="44" gradientUnits="userSpaceOnUse"><stop stop-color="#BC9CFF"/><stop offset="1" stop-color="#8BA4F9"/></linearGradient></defs></svg>