<svg xmlns="http://www.w3.org/2000/svg" width="10" height="8" fill="none"><path fill="#1F2041" fill-opacity=".25" d="M5.04 6.73c.62-.56 1.1-.98 1.4-1.27.3-.28.6-.62.96-1 .35-.4.6-.75.72-1.05.15-.3.22-.58.22-.86 0-.42-.14-.77-.43-1.04-.26-.27-.6-.4-1.03-.4-.32 0-.63.08-.9.26-.3.2-.48.42-.58.7h-.8c-.1-.28-.3-.5-.58-.7-.27-.18-.57-.27-.9-.27-.4 0-.76.13-1.05.4-.27.27-.4.62-.4 1.04 0 .28.06.57.2.87.13.3.38.66.73 1.05.35.4.67.73.97 1 .3.3.77.72 1.4 1.28l.03.04.04-.04zM6.87.25c.66 0 1.2.22 1.63.66.44.46.66 1 .66 1.64 0 .37-.07.74-.2 1.1-.16.36-.42.76-.82 1.2-.37.44-.72.8-1.03 1.1-.3.3-.8.77-1.5 1.4L5 7.9l-.6-.54c-.9-.8-1.55-1.4-1.96-1.82-.4-.4-.75-.88-1.1-1.42-.33-.55-.5-1.08-.5-1.58 0-.64.2-1.18.64-1.63.45-.43 1-.65 1.65-.65.75 0 1.38.3 1.87.88.5-.6 1.12-.88 1.88-.88z"/></svg>